<svg width="138" height="42" viewBox="0 0 138 42" fill="none" xmlns="http://www.w3.org/2000/svg">
<path fill-rule="evenodd" clip-rule="evenodd" d="M79.9417 16.0522C81.537 16.3763 84.1318 17.4057 84.4328 20.3196L84.4238 20.5177L84.2461 20.4306C84.2221 20.4186 82.1421 19.4524 79.0296 18.252C78.7118 18.4629 78.3415 18.5818 77.96 18.5956C77.5785 18.6094 77.2005 18.5174 76.8683 18.33C75.8194 19.1077 74.5618 19.5559 73.2561 19.6175C72.2507 19.6234 71.4771 19.2393 70.6613 18.621L70.5018 18.498L70.6915 18.429C70.6915 18.429 70.7003 18.4256 70.7143 18.4203C70.9521 18.3301 73.0054 17.551 75.8478 16.1993C75.9344 15.6611 76.2296 15.1783 76.6696 14.8549C76.3715 13.2643 76.3475 10.4584 78.9634 9.09306L79.1409 9V9.19812C79.1379 9.2251 79.0325 11.4878 79.0536 14.7888C79.4996 15.0825 79.8171 15.5341 79.9417 16.0522ZM77.2675 17.5003C77.4625 17.6282 77.6913 17.6956 77.9248 17.6938C78.0796 17.693 78.2328 17.6617 78.3755 17.6018C78.5182 17.542 78.6476 17.4546 78.7564 17.3448C78.8651 17.235 78.9511 17.1049 79.0094 16.9619C79.0676 16.8188 79.097 16.6658 79.0958 16.5114C79.0946 16.2787 79.0242 16.0514 78.8933 15.8585C78.7626 15.6657 78.5773 15.5159 78.3611 15.428C78.1448 15.3402 77.9074 15.3182 77.6786 15.3651C77.4498 15.4119 77.2402 15.5253 77.0761 15.6909C76.9121 15.8566 76.801 16.0671 76.757 16.2957C76.7129 16.5243 76.7379 16.7608 76.8289 16.9752C76.9197 17.1897 77.0723 17.3724 77.2675 17.5003ZM30 18.42V32.9986H33.6363V29.0525H36.8511C37.7838 29.0725 38.7 28.8064 39.476 28.2902C40.2186 27.7845 40.8212 27.1002 41.2279 26.3005C41.6418 25.5125 41.8588 24.6363 41.86 23.7468C41.859 23.0806 41.7313 22.4207 41.4838 21.8021C41.2339 21.1736 40.8696 20.5967 40.4091 20.1006C39.9441 19.5997 39.3911 19.1878 38.7776 18.8852C38.1365 18.5706 37.4301 18.4112 36.7157 18.42H30ZM36.6073 25.8594H33.6363V21.595H36.4718C36.7564 21.5953 37.0359 21.6709 37.2816 21.8142C37.5564 21.9805 37.7761 22.2237 37.9137 22.5133C38.0906 22.8966 38.1742 23.3161 38.1575 23.7377C38.1695 24.1403 38.0935 24.5407 37.9348 24.9111C37.8173 25.1974 37.6223 25.4457 37.3719 25.6283C37.1468 25.7816 36.8799 25.8623 36.6073 25.8594ZM48.5396 24.8421C49.2835 24.5611 50.074 24.4226 50.8694 24.434V21.2499C50.796 21.2355 50.7215 21.2285 50.6467 21.2289H50.2915C49.5724 21.2518 48.8769 21.4903 48.2957 21.9132C47.631 22.3894 47.091 23.0184 46.7215 23.7467V21.3909H43.4855V32.9986H47.0345V26.0425C47.3835 25.4822 47.9148 25.0585 48.5396 24.8421ZM57.7928 32.9986C56.9062 33.0164 56.0246 32.8603 55.1981 32.5395C54.4901 32.2552 53.8485 31.8283 53.3136 31.2856C52.7785 30.743 52.3616 30.0961 52.0885 29.3855C51.5468 27.9594 51.5468 26.3851 52.0885 24.9592C52.3587 24.2679 52.7617 23.6359 53.2746 23.0986C53.8114 22.5409 54.4636 22.1066 55.1861 21.8262C56.8594 21.2142 58.6962 21.2142 60.3695 21.8262C61.0895 22.1112 61.741 22.5448 62.281 23.0986C62.8005 23.6343 63.2095 24.2665 63.4851 24.9592C64.0288 26.3848 64.0288 27.9599 63.4851 29.3855C63.2129 30.0963 62.7959 30.7433 62.2601 31.2851C61.7244 31.827 61.0816 32.2521 60.3725 32.5336C59.5509 32.8533 58.6748 33.0113 57.7928 32.9986ZM55.2552 27.1768C55.2449 27.6967 55.3606 28.2115 55.5924 28.6773C55.7976 29.0919 56.1092 29.4449 56.4954 29.7007C56.8854 29.942 57.3353 30.0699 57.7943 30.0699C58.2533 30.0699 58.7033 29.942 59.0932 29.7007C59.4799 29.4492 59.7917 29.0989 59.9963 28.6863C60.2106 28.2117 60.3215 27.6973 60.3215 27.1768C60.3215 26.6564 60.2106 26.1418 59.9963 25.6674C59.7904 25.2532 59.479 24.9004 59.0932 24.644C58.7095 24.3913 58.2587 24.2586 57.7989 24.2629C57.3451 24.2563 56.8996 24.3848 56.5195 24.632C56.1353 24.8914 55.8243 25.2447 55.6164 25.6584C55.372 26.127 55.2479 26.6486 55.2552 27.1768ZM65.4687 18.42V32.9986H74.141V29.8237H69.102V18.42H65.4687ZM76.0013 32.9986L76.8141 21.9911C76.8141 21.0129 77.3739 20.2236 78.0693 20.2236C78.7827 20.2236 79.3245 21.0129 79.3245 21.9911L80.1373 32.9986H76.0013ZM89.8993 32.9986H93.4482V25.6733C93.4462 25.1763 93.402 24.6803 93.3157 24.1908C93.2314 23.6966 93.0624 23.2205 92.8161 22.7834C92.5647 22.3459 92.1956 21.9872 91.7504 21.7481C91.1777 21.4602 90.54 21.3249 89.8993 21.3549C89.2711 21.3505 88.6452 21.4312 88.0389 21.595C87.4897 21.7408 86.9716 21.9847 86.5098 22.3152C86.0663 22.6317 85.6891 23.0312 85.3991 23.4916V21.3909H82.2083V32.9986H85.7542V26.4416C85.8853 26.0602 86.0967 25.7113 86.3743 25.4183C86.6413 25.1294 86.9571 24.8897 87.3074 24.7101C87.6152 24.549 87.9564 24.4616 88.3038 24.4549C88.52 24.4507 88.7344 24.4942 88.9317 24.5824C89.129 24.6706 89.3041 24.8013 89.4447 24.9651C89.7477 25.3052 89.8993 25.8513 89.8993 26.6036V32.9986ZM103.231 32.9986L100.194 28.4012L98.9539 29.6285V32.9986H95.4048V18.42H98.9539V26.2645L102.951 21.3909H106.696L102.455 26.4926L107 32.9986H103.231Z" fill="#06352F"/>
</svg>
